<mxfile host="Electron" modified="2024-01-26T20:54:28.583Z" agent="Mozilla/5.0 (Windows NT 10.0; Win64; x64) AppleWebKit/537.36 (KHTML, like Gecko) draw.io/22.1.21 Chrome/120.0.6099.109 Electron/28.1.0 Safari/537.36" etag="hhj3onvNFBIa9T9h88QH" version="22.1.21" type="device">
  <diagram id="7ac91c9_CYBIp-0gwyT7" name="Страница 1">
    <mxGraphModel dx="1276" dy="-4070" grid="1" gridSize="10" guides="1" tooltips="1" connect="1" arrows="1" fold="1" page="1" pageScale="1" pageWidth="827" pageHeight="1169" math="0" shadow="0">
      <root>
        <mxCell id="0" />
        <mxCell id="1" parent="0" />
        <mxCell id="g7hA280cSHpAfKu-B-t--48" value="par" style="shape=umlFrame;whiteSpace=wrap;html=1;" parent="1" vertex="1">
          <mxGeometry x="485" y="5040" width="670" height="220" as="geometry" />
        </mxCell>
        <mxCell id="g7hA280cSHpAfKu-B-t--3" value="" style="shape=umlLifeline;participant=umlActor;perimeter=lifelinePerimeter;whiteSpace=wrap;html=1;container=1;collapsible=0;recursiveResize=0;verticalAlign=top;spacingTop=36;outlineConnect=0;fontSize=25;" parent="1" vertex="1">
          <mxGeometry x="40" y="4860" width="20" height="720" as="geometry" />
        </mxCell>
        <mxCell id="g7hA280cSHpAfKu-B-t--4" value="Запрос списка фильмов &lt;br&gt;и сериалов Otium &lt;br&gt;(с фильтрами и сортировкой)" style="html=1;verticalAlign=bottom;startArrow=none;startFill=0;endArrow=block;startSize=8;rounded=1;fontSize=14;entryX=0.069;entryY=-0.001;entryDx=0;entryDy=0;entryPerimeter=0;" parent="g7hA280cSHpAfKu-B-t--3" target="g7hA280cSHpAfKu-B-t--19" edge="1">
          <mxGeometry width="60" relative="1" as="geometry">
            <mxPoint x="10" y="120" as="sourcePoint" />
            <mxPoint x="70" y="120" as="targetPoint" />
          </mxGeometry>
        </mxCell>
        <mxCell id="g7hA280cSHpAfKu-B-t--5" value="Web Server" style="shape=umlLifeline;perimeter=lifelinePerimeter;whiteSpace=wrap;html=1;container=1;collapsible=0;recursiveResize=0;outlineConnect=0;fontSize=25;" parent="1" vertex="1">
          <mxGeometry x="490" y="4860" width="150" height="720" as="geometry" />
        </mxCell>
        <mxCell id="g7hA280cSHpAfKu-B-t--6" value="" style="html=1;points=[];perimeter=orthogonalPerimeter;fontFamily=Helvetica;fontSize=25;fontColor=default;align=center;strokeColor=default;fillColor=default;" parent="g7hA280cSHpAfKu-B-t--5" vertex="1">
          <mxGeometry x="70" y="160" width="10" height="510" as="geometry" />
        </mxCell>
        <mxCell id="g7hA280cSHpAfKu-B-t--44" value="" style="html=1;points=[];perimeter=orthogonalPerimeter;" parent="g7hA280cSHpAfKu-B-t--5" vertex="1">
          <mxGeometry x="75" y="460" width="10" height="40" as="geometry" />
        </mxCell>
        <mxCell id="g7hA280cSHpAfKu-B-t--45" value="обработать данные и&lt;br&gt;применить фильтры" style="edgeStyle=orthogonalEdgeStyle;html=1;align=left;spacingLeft=2;endArrow=block;rounded=0;entryX=1;entryY=0;exitX=1.04;exitY=0.531;exitDx=0;exitDy=0;exitPerimeter=0;" parent="g7hA280cSHpAfKu-B-t--5" source="g7hA280cSHpAfKu-B-t--6" target="g7hA280cSHpAfKu-B-t--44" edge="1">
          <mxGeometry relative="1" as="geometry">
            <mxPoint x="80" y="410" as="sourcePoint" />
            <Array as="points">
              <mxPoint x="120" y="431" />
              <mxPoint x="120" y="460" />
            </Array>
          </mxGeometry>
        </mxCell>
        <mxCell id="MpZYyDJgsBUx-2memwEm-8" value="" style="html=1;points=[[0,0,0,0,5],[0,1,0,0,-5],[1,0,0,0,5],[1,1,0,0,-5]];perimeter=orthogonalPerimeter;outlineConnect=0;targetShapes=umlLifeline;portConstraint=eastwest;newEdgeStyle={&quot;curved&quot;:0,&quot;rounded&quot;:0};" parent="g7hA280cSHpAfKu-B-t--5" vertex="1">
          <mxGeometry x="75" y="540" width="10" height="60" as="geometry" />
        </mxCell>
        <mxCell id="g7hA280cSHpAfKu-B-t--9" value="Series Server" style="shape=umlLifeline;perimeter=lifelinePerimeter;whiteSpace=wrap;html=1;container=1;collapsible=0;recursiveResize=0;outlineConnect=0;fontSize=25;" parent="1" vertex="1">
          <mxGeometry x="995" y="4860" width="160" height="720" as="geometry" />
        </mxCell>
        <mxCell id="8ls1gTeXbY_8odH4ZYZD-5" value="" style="html=1;points=[];perimeter=orthogonalPerimeter;fontFamily=Helvetica;fontSize=25;fontColor=default;align=center;strokeColor=default;fillColor=default;" parent="g7hA280cSHpAfKu-B-t--9" vertex="1">
          <mxGeometry x="75" y="320" width="10" height="50" as="geometry" />
        </mxCell>
        <mxCell id="8ls1gTeXbY_8odH4ZYZD-6" value="&lt;div style=&quot;text-align: left;&quot;&gt;&lt;font face=&quot;Inter, system-ui, -apple-system, system-ui, Segoe UI, Roboto, Oxygen, Ubuntu, Cantarell, Fira Sans, Droid Sans, Helvetica, Arial, sans-serif&quot;&gt;&lt;span style=&quot;font-size: 14px;&quot;&gt;список всех сериалов&lt;/span&gt;&lt;/font&gt;&lt;/div&gt;" style="html=1;verticalAlign=bottom;startArrow=none;endArrow=open;startSize=8;rounded=1;fontSize=25;startFill=0;endFill=0;dashed=1;entryX=1.1;entryY=0.406;entryDx=0;entryDy=0;entryPerimeter=0;exitX=-0.05;exitY=0.205;exitDx=0;exitDy=0;exitPerimeter=0;" parent="g7hA280cSHpAfKu-B-t--9" target="g7hA280cSHpAfKu-B-t--6" edge="1">
          <mxGeometry x="-0.001" relative="1" as="geometry">
            <mxPoint x="75" y="370" as="sourcePoint" />
            <mxPoint x="-170" y="370" as="targetPoint" />
            <mxPoint as="offset" />
          </mxGeometry>
        </mxCell>
        <mxCell id="g7hA280cSHpAfKu-B-t--13" value="&lt;span style=&quot;background-color: rgb(255, 255, 255); font-size: 13px;&quot;&gt;&lt;font style=&quot;font-size: 13px;&quot;&gt;&lt;span style=&quot;font-family: Inter, system-ui, -apple-system, &amp;quot;system-ui&amp;quot;, &amp;quot;Segoe UI&amp;quot;, Roboto, Oxygen, Ubuntu, Cantarell, &amp;quot;Fira Sans&amp;quot;, &amp;quot;Droid Sans&amp;quot;, Helvetica, Arial, sans-serif; text-align: left;&quot; data-testid=&quot;resolvedVariable&quot; spellcheck=&quot;false&quot; class=&quot;resolvedVariable&quot;&gt;GET {{WebServer}}&lt;/span&gt;&lt;span style=&quot;font-family: Inter, system-ui, -apple-system, &amp;quot;system-ui&amp;quot;, &amp;quot;Segoe UI&amp;quot;, Roboto, Oxygen, Ubuntu, Cantarell, &amp;quot;Fira Sans&amp;quot;, &amp;quot;Droid Sans&amp;quot;, Helvetica, Arial, sans-serif; text-align: left;&quot; data-testid=&quot;resolvedVariable&quot; spellcheck=&quot;false&quot; class=&quot;resolvedVariable&quot;&gt;/&lt;/span&gt;&lt;/font&gt;&lt;span style=&quot;font-family: Inter, system-ui, -apple-system, &amp;quot;system-ui&amp;quot;, &amp;quot;Segoe UI&amp;quot;, Roboto, Oxygen, Ubuntu, Cantarell, &amp;quot;Fira Sans&amp;quot;, &amp;quot;Droid Sans&amp;quot;, Helvetica, Arial, sans-serif; text-align: left;&quot; data-offset-key=&quot;a3p1t-1-0&quot;&gt;&lt;span style=&quot;&quot; data-text=&quot;true&quot;&gt;content/list&lt;/span&gt;&lt;/span&gt;&lt;/span&gt;" style="html=1;verticalAlign=bottom;startArrow=none;endArrow=block;startSize=8;rounded=1;fontSize=25;entryX=-0.044;entryY=0.001;entryDx=0;entryDy=0;entryPerimeter=0;startFill=0;" parent="1" source="g7hA280cSHpAfKu-B-t--19" target="g7hA280cSHpAfKu-B-t--6" edge="1">
          <mxGeometry x="-0.0014" relative="1" as="geometry">
            <mxPoint x="245" y="4940" as="sourcePoint" />
            <mxPoint as="offset" />
          </mxGeometry>
        </mxCell>
        <mxCell id="g7hA280cSHpAfKu-B-t--18" value="UI: Otium" style="shape=umlLifeline;perimeter=lifelinePerimeter;whiteSpace=wrap;html=1;container=1;collapsible=0;recursiveResize=0;outlineConnect=0;fontSize=25;" parent="1" vertex="1">
          <mxGeometry x="235" y="4860" width="150" height="720" as="geometry" />
        </mxCell>
        <mxCell id="g7hA280cSHpAfKu-B-t--19" value="" style="html=1;points=[];perimeter=orthogonalPerimeter;fontFamily=Helvetica;fontSize=25;fontColor=default;align=center;strokeColor=default;fillColor=default;" parent="g7hA280cSHpAfKu-B-t--18" vertex="1">
          <mxGeometry x="70" y="120" width="10" height="570" as="geometry" />
        </mxCell>
        <mxCell id="g7hA280cSHpAfKu-B-t--42" value="Films Server" style="shape=umlLifeline;perimeter=lifelinePerimeter;whiteSpace=wrap;html=1;container=1;collapsible=0;recursiveResize=0;outlineConnect=0;fontSize=25;" parent="1" vertex="1">
          <mxGeometry x="740" y="4860" width="160" height="720" as="geometry" />
        </mxCell>
        <mxCell id="8ls1gTeXbY_8odH4ZYZD-2" value="" style="html=1;points=[];perimeter=orthogonalPerimeter;fontFamily=Helvetica;fontSize=25;fontColor=default;align=center;strokeColor=default;fillColor=default;" parent="g7hA280cSHpAfKu-B-t--42" vertex="1">
          <mxGeometry x="75" y="230" width="10" height="50" as="geometry" />
        </mxCell>
        <mxCell id="8ls1gTeXbY_8odH4ZYZD-1" value="&lt;span style=&quot;background-color: rgb(255, 255, 255); font-size: 14px;&quot;&gt;&lt;font style=&quot;font-size: 14px;&quot;&gt;&lt;span style=&quot;font-family: Inter, system-ui, -apple-system, &amp;quot;system-ui&amp;quot;, &amp;quot;Segoe UI&amp;quot;, Roboto, Oxygen, Ubuntu, Cantarell, &amp;quot;Fira Sans&amp;quot;, &amp;quot;Droid Sans&amp;quot;, Helvetica, Arial, sans-serif; text-align: left;&quot; data-testid=&quot;resolvedVariable&quot; spellcheck=&quot;false&quot; class=&quot;resolvedVariable&quot;&gt;GET {{FilmsServer}}&lt;/span&gt;&lt;span style=&quot;font-family: Inter, system-ui, -apple-system, &amp;quot;system-ui&amp;quot;, &amp;quot;Segoe UI&amp;quot;, Roboto, Oxygen, Ubuntu, Cantarell, &amp;quot;Fira Sans&amp;quot;, &amp;quot;Droid Sans&amp;quot;, Helvetica, Arial, sans-serif; text-align: left;&quot; data-testid=&quot;resolvedVariable&quot; spellcheck=&quot;false&quot; class=&quot;resolvedVariable&quot;&gt;/films&lt;/span&gt;&lt;/font&gt;&lt;span style=&quot;font-family: Inter, system-ui, -apple-system, &amp;quot;system-ui&amp;quot;, &amp;quot;Segoe UI&amp;quot;, Roboto, Oxygen, Ubuntu, Cantarell, &amp;quot;Fira Sans&amp;quot;, &amp;quot;Droid Sans&amp;quot;, Helvetica, Arial, sans-serif; text-align: left;&quot; data-offset-key=&quot;a3p1t-1-0&quot;&gt;&lt;span style=&quot;&quot; data-text=&quot;true&quot;&gt;/list&lt;/span&gt;&lt;/span&gt;&lt;/span&gt;" style="html=1;verticalAlign=bottom;startArrow=none;endArrow=block;startSize=8;rounded=1;fontSize=25;entryX=-0.044;entryY=0.001;entryDx=0;entryDy=0;entryPerimeter=0;startFill=0;" parent="g7hA280cSHpAfKu-B-t--42" edge="1">
          <mxGeometry x="-0.001" relative="1" as="geometry">
            <mxPoint x="-170" y="230" as="sourcePoint" />
            <mxPoint x="75" y="230" as="targetPoint" />
            <mxPoint as="offset" />
          </mxGeometry>
        </mxCell>
        <mxCell id="8ls1gTeXbY_8odH4ZYZD-4" value="&lt;span style=&quot;background-color: rgb(255, 255, 255); font-size: 14px;&quot;&gt;&lt;font style=&quot;font-size: 14px;&quot;&gt;&lt;span style=&quot;font-family: Inter, system-ui, -apple-system, &amp;quot;system-ui&amp;quot;, &amp;quot;Segoe UI&amp;quot;, Roboto, Oxygen, Ubuntu, Cantarell, &amp;quot;Fira Sans&amp;quot;, &amp;quot;Droid Sans&amp;quot;, Helvetica, Arial, sans-serif; text-align: left;&quot; data-testid=&quot;resolvedVariable&quot; spellcheck=&quot;false&quot; class=&quot;resolvedVariable&quot;&gt;GET {{SeriesServer}}&lt;/span&gt;&lt;span style=&quot;font-family: Inter, system-ui, -apple-system, &amp;quot;system-ui&amp;quot;, &amp;quot;Segoe UI&amp;quot;, Roboto, Oxygen, Ubuntu, Cantarell, &amp;quot;Fira Sans&amp;quot;, &amp;quot;Droid Sans&amp;quot;, Helvetica, Arial, sans-serif; text-align: left;&quot; data-testid=&quot;resolvedVariable&quot; spellcheck=&quot;false&quot; class=&quot;resolvedVariable&quot;&gt;/series&lt;/span&gt;&lt;/font&gt;&lt;span style=&quot;font-family: Inter, system-ui, -apple-system, &amp;quot;system-ui&amp;quot;, &amp;quot;Segoe UI&amp;quot;, Roboto, Oxygen, Ubuntu, Cantarell, &amp;quot;Fira Sans&amp;quot;, &amp;quot;Droid Sans&amp;quot;, Helvetica, Arial, sans-serif; text-align: left;&quot; data-offset-key=&quot;a3p1t-1-0&quot;&gt;&lt;span style=&quot;&quot; data-text=&quot;true&quot;&gt;/list&lt;/span&gt;&lt;/span&gt;&lt;/span&gt;" style="html=1;verticalAlign=bottom;startArrow=none;endArrow=block;startSize=8;rounded=1;fontSize=25;entryX=-0.044;entryY=0.001;entryDx=0;entryDy=0;entryPerimeter=0;startFill=0;" parent="g7hA280cSHpAfKu-B-t--42" source="g7hA280cSHpAfKu-B-t--6" edge="1">
          <mxGeometry x="-0.001" relative="1" as="geometry">
            <mxPoint x="85" y="319.86999999999995" as="sourcePoint" />
            <mxPoint x="330" y="319.86999999999995" as="targetPoint" />
            <mxPoint as="offset" />
          </mxGeometry>
        </mxCell>
        <mxCell id="8ls1gTeXbY_8odH4ZYZD-3" value="&lt;div style=&quot;text-align: left;&quot;&gt;&lt;font face=&quot;Inter, system-ui, -apple-system, system-ui, Segoe UI, Roboto, Oxygen, Ubuntu, Cantarell, Fira Sans, Droid Sans, Helvetica, Arial, sans-serif&quot;&gt;&lt;span style=&quot;font-size: 14px;&quot;&gt;список всех фильмов&lt;/span&gt;&lt;/font&gt;&lt;/div&gt;" style="html=1;verticalAlign=bottom;startArrow=none;endArrow=open;startSize=8;rounded=1;fontSize=25;startFill=0;endFill=0;dashed=1;exitX=0.186;exitY=0.996;exitDx=0;exitDy=0;exitPerimeter=0;" parent="1" source="8ls1gTeXbY_8odH4ZYZD-2" target="g7hA280cSHpAfKu-B-t--6" edge="1">
          <mxGeometry x="-0.001" relative="1" as="geometry">
            <mxPoint x="800" y="5140" as="sourcePoint" />
            <mxPoint x="570" y="5121" as="targetPoint" />
            <mxPoint as="offset" />
          </mxGeometry>
        </mxCell>
        <mxCell id="8ls1gTeXbY_8odH4ZYZD-10" value="список фильмов и сериалов &#xa;(с учетом фильтров и сортировки)" style="html=1;verticalAlign=bottom;startArrow=none;endArrow=open;startSize=8;rounded=1;startFill=0;endFill=0;dashed=1;entryX=1.017;entryY=0.307;entryDx=0;entryDy=0;entryPerimeter=0;" parent="1" edge="1">
          <mxGeometry x="-0.12" y="-30" relative="1" as="geometry">
            <mxPoint x="305" y="5540" as="sourcePoint" />
            <mxPoint x="55" y="5540" as="targetPoint" />
            <mxPoint x="1" as="offset" />
          </mxGeometry>
        </mxCell>
        <mxCell id="RRdJfC0zObSnppFsDDX7-3" value="opt" style="shape=umlFrame;whiteSpace=wrap;html=1;pointerEvents=0;" parent="1" vertex="1">
          <mxGeometry x="460" y="5280" width="300" height="90" as="geometry" />
        </mxCell>
        <mxCell id="8ls1gTeXbY_8odH4ZYZD-9" value="список фильмов и сериалов &#xa;(с учетом фильтров и сортировки)" style="html=1;verticalAlign=bottom;startArrow=none;endArrow=open;startSize=8;rounded=1;startFill=0;endFill=0;dashed=1;exitX=0.502;exitY=0.693;exitDx=0;exitDy=0;exitPerimeter=0;" parent="1" edge="1">
          <mxGeometry x="0.0599" relative="1" as="geometry">
            <mxPoint x="559.9999999999998" y="5520" as="sourcePoint" />
            <mxPoint x="314.7" y="5520.04" as="targetPoint" />
            <mxPoint x="-1" as="offset" />
          </mxGeometry>
        </mxCell>
        <mxCell id="MpZYyDJgsBUx-2memwEm-13" value="Применить сортировку&lt;br&gt;&amp;nbsp;по возрастанию/убыванию" style="html=1;verticalAlign=bottom;endArrow=block;curved=0;rounded=0;" parent="1" edge="1">
          <mxGeometry x="0.1765" y="-40" width="80" relative="1" as="geometry">
            <mxPoint x="570" y="5390" as="sourcePoint" />
            <mxPoint x="580" y="5410" as="targetPoint" />
            <Array as="points">
              <mxPoint x="650" y="5390" />
              <mxPoint x="650" y="5410" />
            </Array>
            <mxPoint x="40" y="40" as="offset" />
          </mxGeometry>
        </mxCell>
        <mxCell id="93I_LghveHQhIE8_HcD9-1" value="opt" style="shape=umlFrame;whiteSpace=wrap;html=1;pointerEvents=0;" vertex="1" parent="1">
          <mxGeometry x="460" y="5380" width="300" height="100" as="geometry" />
        </mxCell>
      </root>
    </mxGraphModel>
  </diagram>
</mxfile>
